<?xml version="1.0" encoding="utf-8"?>
<!-- Generator: Adobe Illustrator 24.2.1, SVG Export Plug-In . SVG Version: 6.00 Build 0)  -->
<svg version="1.1" xmlns="http://www.w3.org/2000/svg" xmlns:xlink="http://www.w3.org/1999/xlink" x="0px" y="0px"
	 viewBox="0 0 500 500" style="enable-background:new 0 0 500 500;" xml:space="preserve">
<style type="text/css">
	.st0{fill:#EDB83E;}
	.st1{fill:#2C3761;}
	.st2{fill:#6EABFB;}
	.st3{fill:#D8A236;}
</style>
<g id="BACKGROUND">
</g>
<g id="OBJECTS">
	<g>
		<g>
			<g>
				<path class="st0" d="M122.4,302.46h8.11v57.78h-8.11V302.46z M126.33,302.46h33.18v7.71h-33.18V302.46z M126.33,327.7h28.81
					v7.71h-28.81V327.7z M126.33,352.54h33.18v7.71h-33.18V352.54z"/>
				<path class="st0" d="M177.98,360.13c-2.13-0.48-4.13-1.19-5.98-2.15c-1.85-0.95-3.56-2.15-5.13-3.58l4.81-5.92
					c2.23,1.7,4.44,2.97,6.64,3.81c2.2,0.85,4.37,1.27,6.52,1.27c3.21,0,5.61-0.5,7.21-1.49c1.6-0.99,2.4-2.48,2.4-4.47
					c0-1.32-0.44-2.32-1.31-2.98c-0.87-0.66-1.96-1.11-3.26-1.33c-1.3-0.22-3.13-0.43-5.48-0.62c-0.21,0-0.44-0.01-0.68-0.02
					c-0.24-0.01-0.46-0.03-0.68-0.06c-0.11,0-0.21-0.01-0.32-0.02s-0.21-0.02-0.32-0.02c-2.68-0.21-4.94-0.6-6.8-1.17
					c-1.85-0.57-3.4-1.64-4.63-3.2c-1.23-1.56-1.85-3.8-1.85-6.72c0-2.91,0.6-5.34,1.79-7.27c1.19-1.93,2.97-3.38,5.33-4.35
					c2.36-0.97,5.31-1.45,8.86-1.45c2.15,0,4.19,0.2,6.14,0.6s3.81,0.99,5.58,1.77c1.77,0.78,3.48,1.77,5.13,2.96l-4.89,5.92
					c-2.07-1.32-4.1-2.32-6.1-2.98c-2-0.66-3.95-0.99-5.86-0.99c-2.76,0-4.82,0.47-6.2,1.41c-1.38,0.94-2.07,2.35-2.07,4.23
					c0,1.11,0.39,1.95,1.17,2.5c0.78,0.56,1.77,0.93,2.96,1.11c1.19,0.19,2.89,0.34,5.09,0.48c0.16,0.03,0.32,0.04,0.5,0.04
					c0.17,0,0.35,0.01,0.54,0.04c0.08,0,0.16,0,0.24,0c0.08,0,0.16,0.01,0.24,0.04c2.89,0.19,5.34,0.57,7.37,1.15
					s3.73,1.74,5.11,3.46c1.38,1.72,2.07,4.21,2.07,7.47c0,2.97-0.64,5.42-1.91,7.37c-1.27,1.95-3.19,3.41-5.74,4.39
					c-2.56,0.98-5.77,1.47-9.64,1.47C182.39,360.84,180.11,360.6,177.98,360.13z"/>
				<path class="st0" d="M219.46,358.74c-2.66-1.4-4.7-3.44-6.1-6.12c-1.4-2.68-2.11-5.91-2.11-9.7v-6.8c0-3.74,0.7-6.93,2.11-9.58
					c1.4-2.65,3.44-4.67,6.1-6.06s5.87-2.09,9.64-2.09c2.15,0,4.17,0.26,6.06,0.77c1.89,0.52,3.6,1.27,5.11,2.25
					c1.51,0.98,2.77,2.17,3.78,3.58l-5.84,5.25c-1.17-1.32-2.53-2.34-4.09-3.06c-1.56-0.71-3.19-1.07-4.89-1.07
					c-3.13,0-5.55,0.88-7.27,2.62c-1.72,1.75-2.58,4.21-2.58,7.39v6.8c0,3.26,0.85,5.78,2.56,7.55c1.71,1.78,4.14,2.66,7.29,2.66
					c1.72,0,3.36-0.38,4.93-1.15c1.56-0.77,2.91-1.85,4.05-3.26l5.84,5.64c-1.03,1.38-2.31,2.55-3.82,3.52
					c-1.51,0.97-3.21,1.7-5.11,2.21c-1.89,0.5-3.9,0.75-6.02,0.75C225.34,360.84,222.13,360.14,219.46,358.74z"/>
				<path class="st0" d="M259.62,358.74c-2.54-1.4-4.48-3.45-5.82-6.14c-1.34-2.69-2.01-5.93-2.01-9.72v-6.72
					c0-3.74,0.67-6.93,2.01-9.6c1.34-2.66,3.28-4.69,5.82-6.08c2.54-1.39,5.6-2.09,9.18-2.09s6.64,0.7,9.18,2.09
					s4.48,3.42,5.82,6.08c1.34,2.66,2.01,5.86,2.01,9.6V343c0,3.76-0.67,6.97-2.01,9.64c-1.34,2.66-3.28,4.7-5.82,6.1
					s-5.6,2.11-9.18,2.11S262.16,360.14,259.62,358.74z M275.38,350.47c1.55-1.77,2.32-4.26,2.32-7.47v-6.83
					c0-3.21-0.77-5.68-2.32-7.43c-1.55-1.75-3.74-2.62-6.58-2.62c-2.84,0-5.03,0.88-6.58,2.62c-1.55,1.75-2.33,4.23-2.33,7.43V343
					c0,3.21,0.78,5.7,2.33,7.47c1.55,1.78,3.74,2.66,6.58,2.66C271.63,353.13,273.83,352.25,275.38,350.47z"/>
				<path class="st0" d="M305.44,349.6c0,1.01,0.22,1.78,0.66,2.33c0.44,0.54,1.05,0.81,1.85,0.81h3.82v7.71h-4.77
					c-3.07,0-5.45-0.95-7.13-2.86c-1.68-1.91-2.52-4.6-2.52-8.07v-47.05h8.11V349.6z"/>
				<path class="st0" d="M322.69,357.68c-2.52-2.11-3.78-5.3-3.78-9.6c0-4.08,1.15-7.14,3.46-9.18c2.3-2.04,5.79-3.06,10.45-3.06
					h11.72l0.56,6.52h-12.24c-2.12,0-3.7,0.47-4.75,1.41c-1.05,0.94-1.57,2.38-1.57,4.31c0,2.09,0.7,3.64,2.09,4.65
					s3.5,1.51,6.34,1.51c3.1,0,5.41-0.33,6.93-0.99s2.29-1.7,2.29-3.1l0.83,5.8c-0.72,1.11-1.6,2.03-2.64,2.74
					c-1.05,0.71-2.26,1.25-3.64,1.61s-2.93,0.54-4.65,0.54C329,360.84,325.2,359.79,322.69,357.68z M344.19,334.1
					c0-2.7-0.72-4.8-2.17-6.3c-1.44-1.5-3.49-2.25-6.14-2.25c-1.64,0-3.25,0.25-4.83,0.75s-2.97,1.21-4.19,2.11l-5.92-4.05
					c1.56-1.88,3.62-3.34,6.18-4.39c2.56-1.05,5.4-1.57,8.52-1.57c3.42,0,6.34,0.6,8.78,1.81c2.44,1.21,4.29,2.96,5.56,5.25
					c1.27,2.29,1.91,5.05,1.91,8.29v26.51h-7.71V334.1z"/>
			</g>
		</g>
	</g>
	<g>
		<g>
			<path class="st1" d="M229.72,280.98c0,0-67.65-44.23-140.75-30.33l7.29-25.1c0,0,6.97,0,13.8,1.98l-2.99,13.68
				C107.06,241.21,173.34,234.16,229.72,280.98"/>
			<path class="st2" d="M229.72,280.98c0,0-60.47-62.18-152.34-62.18l51.5-127.89c0,0,4.19,0.56,16.17,4.36l-43.74,108.39
				C101.31,203.66,193.1,225.37,229.72,280.98"/>
			<path class="st0" d="M229.72,280.98c-29.97-72.77-113.22-88.18-113.22-88.18l42.84-106.42c6.69,1.69,12.8,3.78,18.39,6.13
				c9.77,4.12,17.9,9.07,24.61,14.17l-7.16,15.99c0,0-7.69-13.19-26.33-14.41l-30.53,73.55
				C138.32,181.83,205.49,194.13,229.72,280.98z"/>
		</g>
		<g>
			<path class="st1" d="M243.38,280.98c0,0,67.65-44.23,140.75-30.33l-7.29-25.1c0,0-6.97,0-13.8,1.98l2.99,13.68
				C366.04,241.21,299.76,234.16,243.38,280.98"/>
			<path class="st2" d="M243.38,280.98c0,0,60.47-62.18,152.34-62.18l-51.5-127.89c0,0-4.19,0.56-16.17,4.36l43.74,108.39
				C371.79,203.66,280,225.37,243.38,280.98"/>
			<path class="st0" d="M243.38,280.98c29.97-72.77,113.22-88.18,113.22-88.18L313.76,86.39c-6.69,1.69-12.8,3.78-18.39,6.13
				c-9.77,4.12-17.9,9.07-24.61,14.17l7.16,15.99c0,0,7.69-13.19,26.33-14.41l30.53,73.55
				C334.78,181.83,267.61,194.13,243.38,280.98z"/>
		</g>
	</g>
	<g>
		<path class="st3" d="M231.44,211.43c-22.77-3.46-40.82-21.51-44.28-44.28C209.93,170.61,227.98,188.66,231.44,211.43z"/>
		<path class="st3" d="M230.46,189.29c-17.79-9.9-27.17-30.42-23-50.36C225.25,148.84,234.63,169.36,230.46,189.29z"/>
		<path class="st3" d="M242.64,189.29c17.79-9.9,27.17-30.42,23-50.36C247.85,148.84,238.47,169.36,242.64,189.29z"/>
		<path class="st3" d="M236.17,111.27c-11.6,16.73-10.96,39.29,1.57,55.34C249.34,149.87,248.7,127.32,236.17,111.27z"/>
		<path class="st3" d="M241.66,211.43c3.46-22.77,21.51-40.82,44.28-44.28C282.48,189.92,264.43,207.97,241.66,211.43z"/>
	</g>
</g>
</svg>
