<?xml version="1.0" encoding="utf-8"?>
<!-- Generator: Adobe Illustrator 24.2.1, SVG Export Plug-In . SVG Version: 6.00 Build 0)  -->
<svg version="1.1" id="Camada_1" xmlns="http://www.w3.org/2000/svg" xmlns:xlink="http://www.w3.org/1999/xlink" x="0px" y="0px"
	 viewBox="0 0 581 560" style="enable-background:new 0 0 581 560;" xml:space="preserve">
<style type="text/css">
	.st0{fill:#EAEAEA;}
	.st1{fill:#F6D260;}
	.st2{fill:#D1D1D1;}
	.st3{fill:#E48E15;}
	.st4{fill:#B2B2B2;}
	.st5{fill:#99F1FF;}
</style>
<path class="st0" d="M392.84,361H133.16c-11.69,0-21.16-9.47-21.16-21.16V120.16c0-11.69,9.47-21.16,21.16-21.16h259.68
	c11.69,0,21.16,9.47,21.16,21.16v219.68C414,351.53,404.53,361,392.84,361z"/>
<path class="st1" d="M438.28,532.63c-2.49,0.07-4.98,0.19-7.48,0.19c-118.56,0.01-237.12,0.01-355.68,0.01
	c-16.06,0-28.75-12.71-28.75-28.8c0-81.46,0.01-162.92,0-244.38c0-16.88,12.6-29.64,29.59-29.7c23.65-0.08,47.29-0.02,70.94-0.02
	c35.97,0,71.94-0.35,107.9,0.16c15.35,0.22,31.37-8.43,32.19-29.87c0.55-14.23,12.6-28.34,30.74-28.29
	c28.47,0.08,56.95-0.04,85.42-0.08c12.42,0.16,24.84,0.32,37.26,0.47c0.86,0.5,1.68,1.11,2.59,1.47
	c13.81,5.47,20.11,14.57,20.11,29.4c0.02,99.58,0.01,199.17-0.01,298.75c0,2.81,0.08,5.61-0.67,8.42
	C459.08,522.95,450.78,530.03,438.28,532.63z M356.97,272.82c-22.8,0-45.6-0.02-68.4,0.01c-9.21,0.01-13.24,4.08-13.3,13.46
	c-0.06,9.66-0.02,19.31-0.01,28.97c0.01,11.59,3.95,15.54,15.57,15.54c23.97,0.01,47.93,0,71.9,0c20.64,0,41.27,0.04,61.91-0.02
	c9.3-0.03,13.46-4.19,13.49-13.33c0.04-10.66,0.04-21.31,0-31.97c-0.04-8.98-3.71-12.64-12.75-12.66
	C402.57,272.8,379.77,272.82,356.97,272.82z"/>
<path class="st2" d="M440.41,172.33c-12.42-0.16-24.84-0.32-37.26-0.47c0.02-22.32-0.09-44.64,0.17-66.95
	c0.06-4.81-1.3-6.16-6.13-6.15c-83.24,0.14-166.49,0.1-249.73,0.1c-7.04,0-7.04,0-7.04-6.94c-0.01-13.84-0.01-13.84,13.63-13.84
	c97.73,0,195.46,0,293.18,0c6.67,0,6.67,0,6.67,6.82c0.01,13.27,0.01,13.27,13.31,13.27c10.32,0,20.65,0.2,30.96-0.09
	c4.46-0.13,6,1.01,5.95,5.77c-0.22,22.81-0.04,45.63-0.01,68.45c-0.04,2.33-0.1,4.66-0.1,6.99c-0.01,104.11,0,208.22,0,312.33
	c0,1.33-0.11,2.68,0.02,4c0.25,2.67-1,3.46-3.51,3.41c-5.99-0.11-11.99-0.03-17.98-0.03c-6.58,0-6.58,0-6.58-6.8
	c0-95.78-0.01-191.56,0.02-287.34c0-5.74-0.63-11.32-3.29-16.47C465.85,175.15,454.16,171.65,440.41,172.33z"/>
<path class="st3" d="M440.41,172.33c13.75-0.67,25.44,2.82,32.27,16.03c2.66,5.16,3.3,10.73,3.29,16.47
	c-0.03,95.78-0.02,191.56-0.02,287.34c0,6.8,0,6.8,6.58,6.8c5.99,0,11.99-0.08,17.98,0.03c2.51,0.05,3.76-0.74,3.51-3.41
	c-0.13-1.32-0.02-2.66-0.02-4c0-104.11,0-208.22,0-312.33c0-2.33,0.07-4.66,0.1-6.99c21.76-0.42,33.78,11.4,33.78,33.24
	c0,98.03,0,196.05,0,294.08c0,21.73-11.5,33.25-33.26,33.22c-22.12-0.03-44.25-0.13-66.37-0.19c12.49-2.59,20.8-9.68,24.15-22.26
	c0.75-2.81,0.67-5.61,0.67-8.42c0.02-99.58,0.03-199.17,0.01-298.75c0-14.83-6.3-23.93-20.11-29.4
	C442.09,173.43,441.27,172.82,440.41,172.33z"/>
<path class="st4" d="M232.66,131.76c29.94,0,59.89,0,89.83,0c1.66,0,3.34-0.07,4.99,0.08c4.53,0.4,7.69,3.69,7.54,7.76
	c-0.14,3.81-3.32,7.09-7.39,7.48c-1.48,0.14-2.99,0.08-4.49,0.08c-60.05,0-120.11,0-180.16,0c-7.87,0-11.69-2.52-11.72-7.67
	c-0.02-5.16,3.8-7.73,11.57-7.73C172.78,131.75,202.72,131.76,232.66,131.76z"/>
<path class="st4" d="M192.91,186.22c-17.31,0-34.63,0.02-51.94-0.01c-6.03-0.01-9.63-2.9-9.7-7.6c-0.07-4.69,3.62-7.78,9.6-7.78
	c34.63-0.03,69.25-0.03,103.88,0c6.2,0.01,9.58,2.8,9.59,7.68c0.01,4.92-3.31,7.68-9.5,7.69
	C227.54,186.24,210.23,186.22,192.91,186.22z"/>
<path class="st5" d="M356.97,272.82c22.8,0,45.6-0.02,68.4,0.01c9.04,0.01,12.71,3.68,12.75,12.66c0.04,10.66,0.04,21.31,0,31.97
	c-0.03,9.14-4.18,13.3-13.49,13.33c-20.64,0.06-41.27,0.02-61.91,0.02c-23.97,0-47.93,0.01-71.9,0
	c-11.62-0.01-15.57-3.95-15.57-15.54c0-9.66-0.05-19.31,0.01-28.97c0.06-9.38,4.1-13.45,13.3-13.46
	C311.37,272.8,334.17,272.82,356.97,272.82z"/>
</svg>
